<svg width="23" height="45" viewBox="0 0 23 45" fill="none" xmlns="http://www.w3.org/2000/svg">
<mask id="mask0_657_187" style="mask-type:alpha" maskUnits="userSpaceOnUse" x="1" y="0" width="20" height="20">
<rect x="1" width="20" height="20" fill="#A59DFF"/>
</mask>
<g mask="url(#mask0_657_187)">
<path d="M18.0513 5.25512H18.0397V2.86735C18.0397 2.66457 17.8756 2.5 17.6734 2.5H4.32655C4.12435 2.5 3.96025 2.66457 3.96025 2.86735V5.25512H3.94871C3.24193 5.25512 2.66666 5.83205 2.66666 6.54085V11.9898C2.66666 12.6986 3.24193 13.2755 3.94871 13.2755H5.71922V17.1326C5.71922 17.3354 5.88332 17.5 6.08552 17.5H16.0976C16.2998 17.5 16.4639 17.3354 16.4639 17.1326V13.2755H18.0513C18.758 13.2755 19.3333 12.6986 19.3333 11.9898V6.54085C19.3333 5.83205 18.758 5.25512 18.0513 5.25512ZM4.69285 3.2347H17.3073V5.25512H4.69285V3.2347ZM15.7313 16.7653H6.45182V11.3776H15.7313V16.7653ZM18.6007 11.9898C18.6007 12.2935 18.3542 12.5408 18.0513 12.5408H16.4639V11.3776H16.8914C17.0936 11.3776 17.2577 11.213 17.2577 11.0102C17.2577 10.8074 17.0936 10.6429 16.8914 10.6429H16.0976H6.08552H5.1086C4.9064 10.6429 4.7423 10.8074 4.7423 11.0102C4.7423 11.213 4.9064 11.3776 5.1086 11.3776H5.71922V12.5408H3.94871C3.64578 12.5408 3.39926 12.2935 3.39926 11.9898V6.54085C3.39926 6.23705 3.64578 5.98982 3.94871 5.98982H4.32655H17.6736H18.0513C18.3542 5.98982 18.6007 6.23705 18.6007 6.54085V11.9898ZM16.2754 7.22963C15.7341 7.22963 15.2936 7.67155 15.2936 8.21468C15.2936 8.75781 15.7341 9.19954 16.2754 9.19954C16.817 9.19954 17.2577 8.75781 17.2577 8.21468C17.2577 7.67155 16.817 7.22963 16.2754 7.22963ZM16.2754 8.46503C16.1379 8.46503 16.0262 8.3528 16.0262 8.21486C16.0262 8.07674 16.1379 7.96451 16.2754 7.96451C16.4132 7.96451 16.5251 8.07674 16.5251 8.21486C16.5251 8.35262 16.4132 8.46503 16.2754 8.46503ZM13.4033 7.22963C12.8619 7.22963 12.4214 7.67155 12.4214 8.21468C12.4214 8.75781 12.8619 9.19954 13.4033 9.19954C13.9449 9.19954 14.3855 8.75781 14.3855 8.21468C14.3855 7.67155 13.9449 7.22963 13.4033 7.22963ZM13.4033 8.46503C13.2657 8.46503 13.154 8.3528 13.154 8.21486C13.154 8.07674 13.2657 7.96451 13.4033 7.96451C13.541 7.96451 13.6529 8.07674 13.6529 8.21486C13.6529 8.35262 13.541 8.46503 13.4033 8.46503ZM8.06959 13.6428H13.9304C14.1326 13.6428 14.2967 13.4783 14.2967 13.2755C14.2967 13.0727 14.1326 12.9081 13.9304 12.9081H8.06959C7.86739 12.9081 7.70329 13.0727 7.70329 13.2755C7.70329 13.4783 7.86739 13.6428 8.06959 13.6428ZM8.06959 15.6023H13.9304C14.1326 15.6023 14.2967 15.4377 14.2967 15.2349C14.2967 15.0321 14.1326 14.8676 13.9304 14.8676H8.06959C7.86739 14.8676 7.70329 15.0321 7.70329 15.2349C7.70329 15.4377 7.86739 15.6023 8.06959 15.6023Z" fill="#A59DFF"/>
</g>
<path d="M5.79164 36.12C5.79164 36.4733 5.70831 36.8067 5.54164 37.12C5.37497 37.4333 5.10831 37.69 4.74164 37.89C4.37497 38.0833 3.90497 38.18 3.33164 38.18H2.07164V41H0.931641V34.05H3.33164C3.86497 34.05 4.31497 34.1433 4.68164 34.33C5.05497 34.51 5.33164 34.7567 5.51164 35.07C5.69831 35.3833 5.79164 35.7333 5.79164 36.12ZM3.33164 37.25C3.76497 37.25 4.08831 37.1533 4.30164 36.96C4.51497 36.76 4.62164 36.48 4.62164 36.12C4.62164 35.36 4.19164 34.98 3.33164 34.98H2.07164V37.25H3.33164ZM8.01891 36.29C8.18557 36.01 8.40557 35.7933 8.67891 35.64C8.95891 35.48 9.28891 35.4 9.66891 35.4V36.58H9.37891C8.93224 36.58 8.59224 36.6933 8.35891 36.92C8.13224 37.1467 8.01891 37.54 8.01891 38.1V41H6.87891V35.49H8.01891V36.29ZM11.2968 34.76C11.0901 34.76 10.9168 34.69 10.7768 34.55C10.6368 34.41 10.5668 34.2367 10.5668 34.03C10.5668 33.8233 10.6368 33.65 10.7768 33.51C10.9168 33.37 11.0901 33.3 11.2968 33.3C11.4968 33.3 11.6668 33.37 11.8068 33.51C11.9468 33.65 12.0168 33.8233 12.0168 34.03C12.0168 34.2367 11.9468 34.41 11.8068 34.55C11.6668 34.69 11.4968 34.76 11.2968 34.76ZM11.8568 35.49V41H10.7168V35.49H11.8568ZM16.1335 35.4C16.5668 35.4 16.9535 35.49 17.2935 35.67C17.6402 35.85 17.9102 36.1167 18.1035 36.47C18.2968 36.8233 18.3935 37.25 18.3935 37.75V41H17.2635V37.92C17.2635 37.4267 17.1402 37.05 16.8935 36.79C16.6468 36.5233 16.3102 36.39 15.8835 36.39C15.4568 36.39 15.1168 36.5233 14.8635 36.79C14.6168 37.05 14.4935 37.4267 14.4935 37.92V41H13.3535V35.49H14.4935V36.12C14.6802 35.8933 14.9168 35.7167 15.2035 35.59C15.4968 35.4633 15.8068 35.4 16.1335 35.4ZM21.1777 36.42V39.47C21.1777 39.6767 21.2243 39.8267 21.3177 39.92C21.4177 40.0067 21.5843 40.05 21.8177 40.05H22.5177V41H21.6177C21.1043 41 20.711 40.88 20.4377 40.64C20.1643 40.4 20.0277 40.01 20.0277 39.47V36.42H19.3777V35.49H20.0277V34.12H21.1777V35.49H22.5177V36.42H21.1777Z" fill="#A59DFF"/>
</svg>
