<svg width="51" height="45" viewBox="0 0 51 45" fill="none" xmlns="http://www.w3.org/2000/svg">
<mask id="mask0_657_179" style="mask-type:alpha" maskUnits="userSpaceOnUse" x="15" y="0" width="20" height="20">
<rect x="15" width="20" height="20" fill="#A59DFF"/>
</mask>
<g mask="url(#mask0_657_179)">
<path d="M32.7523 13.2949C32.5981 13.2949 32.4502 13.3562 32.3412 13.4652C32.2321 13.5742 32.1709 13.7221 32.1709 13.8763V16.2019C32.1705 16.4588 32.0682 16.705 31.8866 16.8866C31.705 17.0683 31.4587 17.1705 31.2019 17.1709H18.7988C18.5419 17.1705 18.2957 17.0683 18.114 16.8866C17.9324 16.705 17.8302 16.4588 17.8298 16.2019V13.8763C17.8298 13.7221 17.7685 13.5742 17.6595 13.4652C17.5505 13.3562 17.4026 13.2949 17.2484 13.2949C17.0942 13.2949 16.9463 13.3562 16.8373 13.4652C16.7282 13.5742 16.667 13.7221 16.667 13.8763V16.2019C16.6674 16.7672 16.8921 17.3091 17.2918 17.7088C17.6915 18.1085 18.2335 18.3333 18.7988 18.3337H31.2019C31.7671 18.3333 32.3091 18.1085 32.7088 17.7088C33.1085 17.3091 33.3332 16.7672 33.3337 16.2019V13.8763C33.3337 13.7221 33.2724 13.5742 33.1634 13.4652C33.0543 13.3562 32.9065 13.2949 32.7523 13.2949Z" fill="#A59DFF"/>
<path d="M25.0005 1.66797C24.8463 1.66797 24.6984 1.72922 24.5894 1.83826C24.4803 1.94729 24.4191 2.09517 24.4191 2.24936V11.8618L20.7214 8.7796C20.6025 8.68526 20.4514 8.64115 20.3005 8.65671C20.1495 8.67226 20.0106 8.74624 19.9134 8.86284C19.8162 8.97944 19.7685 9.12942 19.7804 9.28073C19.7924 9.43204 19.863 9.57268 19.9772 9.67262L24.6284 13.5486C24.6566 13.5689 24.6867 13.5863 24.7183 13.6005C24.7412 13.6155 24.765 13.6289 24.7896 13.6408C24.8564 13.669 24.9281 13.6835 25.0005 13.6835C25.0729 13.6835 25.1446 13.669 25.2113 13.6408C25.2359 13.6289 25.2598 13.6155 25.2827 13.6005C25.3143 13.5863 25.3444 13.5689 25.3726 13.5486L30.0237 9.67262C30.138 9.57268 30.2086 9.43204 30.2205 9.28073C30.2324 9.12942 30.1847 8.97944 30.0876 8.86284C29.9904 8.74624 29.8515 8.67226 29.7005 8.65671C29.5495 8.64115 29.3984 8.68526 29.2796 8.7796L25.5819 11.8618V2.24936C25.5819 2.09517 25.5206 1.94729 25.4116 1.83826C25.3026 1.72922 25.1547 1.66797 25.0005 1.66797Z" fill="#A59DFF"/>
</g>
<path d="M3.12938 34.05C3.86938 34.05 4.51604 34.1933 5.06938 34.48C5.62938 34.76 6.05938 35.1667 6.35938 35.7C6.66604 36.2267 6.81938 36.8433 6.81938 37.55C6.81938 38.2567 6.66604 38.87 6.35938 39.39C6.05938 39.91 5.62938 40.31 5.06938 40.59C4.51604 40.8633 3.86938 41 3.12938 41H0.859375V34.05H3.12938ZM3.12938 40.07C3.94271 40.07 4.56604 39.85 4.99938 39.41C5.43271 38.97 5.64938 38.35 5.64938 37.55C5.64938 36.7433 5.43271 36.1133 4.99938 35.66C4.56604 35.2067 3.94271 34.98 3.12938 34.98H1.99938V40.07H3.12938ZM10.3392 41.09C9.81922 41.09 9.34922 40.9733 8.92922 40.74C8.50922 40.5 8.17922 40.1667 7.93922 39.74C7.69922 39.3067 7.57922 38.8067 7.57922 38.24C7.57922 37.68 7.70255 37.1833 7.94922 36.75C8.19589 36.3167 8.53255 35.9833 8.95922 35.75C9.38589 35.5167 9.86255 35.4 10.3892 35.4C10.9159 35.4 11.3926 35.5167 11.8192 35.75C12.2459 35.9833 12.5826 36.3167 12.8292 36.75C13.0759 37.1833 13.1992 37.68 13.1992 38.24C13.1992 38.8 13.0726 39.2967 12.8192 39.73C12.5659 40.1633 12.2192 40.5 11.7792 40.74C11.3459 40.9733 10.8659 41.09 10.3392 41.09ZM10.3392 40.1C10.6326 40.1 10.9059 40.03 11.1592 39.89C11.4192 39.75 11.6292 39.54 11.7892 39.26C11.9492 38.98 12.0292 38.64 12.0292 38.24C12.0292 37.84 11.9526 37.5033 11.7992 37.23C11.6459 36.95 11.4426 36.74 11.1892 36.6C10.9359 36.46 10.6626 36.39 10.3692 36.39C10.0759 36.39 9.80255 36.46 9.54922 36.6C9.30255 36.74 9.10589 36.95 8.95922 37.23C8.81255 37.5033 8.73922 37.84 8.73922 38.24C8.73922 38.8333 8.88922 39.2933 9.18922 39.62C9.49589 39.94 9.87922 40.1 10.3392 40.1ZM21.7262 35.49L20.0162 41H18.8162L17.7062 36.93L16.5962 41H15.3962L13.6762 35.49H14.8362L15.9862 39.92L17.1562 35.49H18.3462L19.4662 39.9L20.6062 35.49H21.7262ZM25.3581 35.4C25.7915 35.4 26.1781 35.49 26.5181 35.67C26.8648 35.85 27.1348 36.1167 27.3281 36.47C27.5215 36.8233 27.6181 37.25 27.6181 37.75V41H26.4881V37.92C26.4881 37.4267 26.3648 37.05 26.1181 36.79C25.8715 36.5233 25.5348 36.39 25.1081 36.39C24.6815 36.39 24.3415 36.5233 24.0881 36.79C23.8415 37.05 23.7181 37.4267 23.7181 37.92V41H22.5781V35.49H23.7181V36.12C23.9048 35.8933 24.1415 35.7167 24.4281 35.59C24.7215 35.4633 25.0315 35.4 25.3581 35.4ZM30.2123 33.6V41H29.0723V33.6H30.2123ZM34.099 41.09C33.579 41.09 33.109 40.9733 32.689 40.74C32.269 40.5 31.939 40.1667 31.699 39.74C31.459 39.3067 31.339 38.8067 31.339 38.24C31.339 37.68 31.4623 37.1833 31.709 36.75C31.9557 36.3167 32.2923 35.9833 32.719 35.75C33.1457 35.5167 33.6223 35.4 34.149 35.4C34.6757 35.4 35.1523 35.5167 35.579 35.75C36.0057 35.9833 36.3423 36.3167 36.589 36.75C36.8357 37.1833 36.959 37.68 36.959 38.24C36.959 38.8 36.8323 39.2967 36.579 39.73C36.3257 40.1633 35.979 40.5 35.539 40.74C35.1057 40.9733 34.6257 41.09 34.099 41.09ZM34.099 40.1C34.3923 40.1 34.6657 40.03 34.919 39.89C35.179 39.75 35.389 39.54 35.549 39.26C35.709 38.98 35.789 38.64 35.789 38.24C35.789 37.84 35.7123 37.5033 35.559 37.23C35.4057 36.95 35.2023 36.74 34.949 36.6C34.6957 36.46 34.4223 36.39 34.129 36.39C33.8357 36.39 33.5623 36.46 33.309 36.6C33.0623 36.74 32.8657 36.95 32.719 37.23C32.5723 37.5033 32.499 37.84 32.499 38.24C32.499 38.8333 32.649 39.2933 32.949 39.62C33.2557 39.94 33.639 40.1 34.099 40.1ZM37.7059 38.22C37.7059 37.6667 37.8193 37.1767 38.0459 36.75C38.2793 36.3233 38.5926 35.9933 38.9859 35.76C39.3859 35.52 39.8259 35.4 40.3059 35.4C40.7393 35.4 41.1159 35.4867 41.4359 35.66C41.7626 35.8267 42.0226 36.0367 42.2159 36.29V35.49H43.3659V41H42.2159V40.18C42.0226 40.44 41.7593 40.6567 41.4259 40.83C41.0926 41.0033 40.7126 41.09 40.2859 41.09C39.8126 41.09 39.3793 40.97 38.9859 40.73C38.5926 40.4833 38.2793 40.1433 38.0459 39.71C37.8193 39.27 37.7059 38.7733 37.7059 38.22ZM42.2159 38.24C42.2159 37.86 42.1359 37.53 41.9759 37.25C41.8226 36.97 41.6193 36.7567 41.3659 36.61C41.1126 36.4633 40.8393 36.39 40.5459 36.39C40.2526 36.39 39.9793 36.4633 39.7259 36.61C39.4726 36.75 39.2659 36.96 39.1059 37.24C38.9526 37.5133 38.8759 37.84 38.8759 38.22C38.8759 38.6 38.9526 38.9333 39.1059 39.22C39.2659 39.5067 39.4726 39.7267 39.7259 39.88C39.9859 40.0267 40.2593 40.1 40.5459 40.1C40.8393 40.1 41.1126 40.0267 41.3659 39.88C41.6193 39.7333 41.8226 39.52 41.9759 39.24C42.1359 38.9533 42.2159 38.62 42.2159 38.24ZM44.4833 38.22C44.4833 37.6667 44.5966 37.1767 44.8233 36.75C45.0566 36.3233 45.3699 35.9933 45.7633 35.76C46.1633 35.52 46.6066 35.4 47.0933 35.4C47.4533 35.4 47.8066 35.48 48.1533 35.64C48.5066 35.7933 48.7866 36 48.9933 36.26V33.6H50.1433V41H48.9933V40.17C48.8066 40.4367 48.5466 40.6567 48.2133 40.83C47.8866 41.0033 47.5099 41.09 47.0833 41.09C46.6033 41.09 46.1633 40.97 45.7633 40.73C45.3699 40.4833 45.0566 40.1433 44.8233 39.71C44.5966 39.27 44.4833 38.7733 44.4833 38.22ZM48.9933 38.24C48.9933 37.86 48.9133 37.53 48.7533 37.25C48.5999 36.97 48.3966 36.7567 48.1433 36.61C47.8899 36.4633 47.6166 36.39 47.3233 36.39C47.0299 36.39 46.7566 36.4633 46.5033 36.61C46.2499 36.75 46.0433 36.96 45.8833 37.24C45.7299 37.5133 45.6533 37.84 45.6533 38.22C45.6533 38.6 45.7299 38.9333 45.8833 39.22C46.0433 39.5067 46.2499 39.7267 46.5033 39.88C46.7633 40.0267 47.0366 40.1 47.3233 40.1C47.6166 40.1 47.8899 40.0267 48.1433 39.88C48.3966 39.7333 48.5999 39.52 48.7533 39.24C48.9133 38.9533 48.9933 38.62 48.9933 38.24Z" fill="#A59DFF"/>
</svg>
